<?xml version="1.0" encoding="UTF-8"?>
<svg xmlns="http://www.w3.org/2000/svg" viewBox="0 0 1000 1000">
	<style>
		path {
			fill: black;
			@media (prefers-color-scheme: dark) {
				fill: white;
			}
		}
	</style>
	<path
		d="M675.56,55.87c-71.19-72.59-196.06-34.26-268.8,16.53-46.83,33.84-81.84,84.26-93.88,140.89,50.12-81.1,118.67-122.61,211.44-138.67,47.18-7.54,99.91-4.57,122.38,43,25.63,55.71,3.07,133.45-39.4,175.57-27.87,28.33-65.8,45.08-104.46,54.24l7.69-153.19-58.99-.79,3.77,161.67c-3.17.29-6.34.55-9.52.75-2.19.15-4.38.27-6.5.35l-2.08,20.6c6.2,1.33,12.43,2.36,18.67,3.13l1.58,67.55c-1.17-.39-2.34-.78-3.51-1.16-20.01-6.4-40.53-12.68-61.95-14.8-13.66-1.22-27.86-.79-41.82,4.66-18.12,7.03-32.83,21.88-40.84,39.37-13.48,29.41-11.72,62.46-7.12,93.45,6.37,39.75,17.75,77.12,27.8,115.41,10.37,38.18,18.44,77.17,37.37,113.13,15.53,29.5,40.07,51.87,74.22,56.28,8.37,1.16,16.86,1.18,25.32.48l3.31,142.08,7.19-143.29c8.29-1.21,16.49-2.96,24.45-4.88,47.42-11.03,93.68-28.25,133.74-56.12-42.13,24.19-88.74,37.16-136.17,43.72-7.15,1.09-14.26,1.96-21.27,2.42l16.18-322.19c18.03,5.01,36.43,10.14,53.26,15.35,27.27,8.28,54.37,17.29,81.51,26.3l13.01-27.31c-16.65-10.59-33.92-20.15-51.54-29.05-24.21-12.25-49.24-23.06-74.6-32.77-6.3-2.37-12.59-4.72-18.89-7.06l4.01-79.8c32.55-1.36,64.99-8.29,94.63-21.96,28.29-13.03,53.72-32.7,73.15-57.15,35.84-45.4,53.87-105.25,45.97-162.91-4.27-30.7-17.13-61.39-39.3-83.81ZM403.21,809.01c-22.96-32.01-28.55-79.08-35.45-117.78-6.73-41.85-13.34-85.06-14.38-126.97-.27-12.91-.02-26,1.66-38.65.96-7.19,2.54-14.39,5.05-20.73,2.04-4.79,3.99-8.23,7.63-11.32,3.12-2.49,5.08-3.21,9.74-3.75,10.74-.79,22.8,1.57,33.79,3.91,15.69,3.5,31.75,7.94,47.58,12.37l7.75,332.47c-24.33-.24-46.69-7.1-63.37-29.56Z" />
</svg>
